<svg width="18" height="19" viewBox="0 0 18 19" fill="none" xmlns="http://www.w3.org/2000/svg">
<g clip-path="url(#clip0_13_47)">
<path d="M9.84375 8.58887H4.78125C4.55748 8.58887 4.34286 8.67776 4.18463 8.836C4.0264 8.99423 3.9375 9.20884 3.9375 9.43262C3.9375 9.65639 4.0264 9.87101 4.18463 10.0292C4.34286 10.1875 4.55748 10.2764 4.78125 10.2764H9.84375C10.0675 10.2764 10.2821 10.1875 10.4404 10.0292C10.5986 9.87101 10.6875 9.65639 10.6875 9.43262C10.6875 9.20884 10.5986 8.99423 10.4404 8.836C10.2821 8.67776 10.0675 8.58887 9.84375 8.58887ZM13.2188 5.21387H4.78125C4.55748 5.21387 4.34286 5.30276 4.18463 5.461C4.0264 5.61923 3.9375 5.83384 3.9375 6.05762C3.9375 6.28139 4.0264 6.49601 4.18463 6.65424C4.34286 6.81247 4.55748 6.90137 4.78125 6.90137H13.2188C13.4425 6.90137 13.6572 6.81247 13.8153 6.65424C13.9736 6.49601 14.0625 6.28139 14.0625 6.05762C14.0625 5.83384 13.9736 5.61923 13.8153 5.461C13.6572 5.30276 13.4425 5.21387 13.2188 5.21387ZM14.9062 0.995117H3.09375C2.42242 0.995117 1.77859 1.2618 1.30389 1.7365C0.829185 2.21121 0.5625 2.85503 0.5625 3.52637V11.9639C0.5625 12.6352 0.829185 13.279 1.30389 13.7537C1.77859 14.2284 2.42242 14.4951 3.09375 14.4951H12.8728L15.9947 17.6254C16.0735 17.7036 16.167 17.7655 16.2699 17.8075C16.3726 17.8495 16.4827 17.8708 16.5938 17.8701C16.7045 17.8729 16.8142 17.8499 16.9144 17.8026C17.0685 17.7393 17.2003 17.6318 17.2935 17.4937C17.3865 17.3555 17.4367 17.193 17.4375 17.0264V3.52637C17.4375 2.85503 17.1708 2.21121 16.6961 1.7365C16.2214 1.2618 15.5775 0.995117 14.9062 0.995117ZM15.75 14.9929L13.8178 13.0523C13.739 12.9741 13.6455 12.9122 13.5426 12.8703C13.4399 12.8282 13.3298 12.8069 13.2188 12.8076H3.09375C2.86998 12.8076 2.65536 12.7187 2.49713 12.5605C2.3389 12.4023 2.25 12.1876 2.25 11.9639V3.52637C2.25 3.30259 2.3389 3.08798 2.49713 2.92975C2.65536 2.77151 2.86998 2.68262 3.09375 2.68262H14.9062C15.13 2.68262 15.3447 2.77151 15.5028 2.92975C15.6611 3.08798 15.75 3.30259 15.75 3.52637V14.9929Z" fill="white"/>
</g>
<defs>
<clipPath id="clip0_13_47">
<rect width="18" height="18" fill="white" transform="translate(0 0.432617)"/>
</clipPath>
</defs>
</svg>
