<svg width="18" height="19" viewBox="0 0 18 19" fill="none" xmlns="http://www.w3.org/2000/svg">
<g clip-path="url(#clip0_13_34)">
<path d="M9.00013 0.995117C7.70589 0.99506 6.42898 1.29274 5.26819 1.86514C4.10739 2.43752 3.09385 3.26928 2.30594 4.29606C1.51804 5.32283 0.9769 6.5171 0.724394 7.78647C0.471889 9.05584 0.514786 10.3663 0.849764 11.6164C1.18475 12.8666 1.80282 14.0228 2.65619 14.996C3.50956 15.969 4.57534 16.7326 5.77108 17.228C6.96682 17.7232 8.26046 17.9367 9.55192 17.852C10.8434 17.7673 12.0981 17.3867 13.2189 16.7395C13.3197 16.6867 13.4088 16.6142 13.4809 16.5261C13.5529 16.438 13.6065 16.3362 13.6381 16.2269C13.6698 16.1177 13.6791 16.0031 13.6654 15.8901C13.6517 15.7772 13.6152 15.6682 13.5583 15.5696C13.5013 15.4711 13.425 15.3851 13.334 15.3168C13.243 15.2485 13.139 15.1994 13.0285 15.1724C12.918 15.1453 12.8031 15.1409 12.6908 15.1593C12.5785 15.1778 12.4711 15.2187 12.3751 15.2798C11.0883 16.0228 9.5924 16.3203 8.11927 16.1264C6.64613 15.9325 5.27814 15.258 4.22742 14.2073C3.17672 13.1568 2.50202 11.7888 2.30795 10.3158C2.11388 8.84263 2.4113 7.34665 3.15408 6.05979C3.89685 4.77293 5.04348 3.76711 6.41614 3.19831C7.7888 2.62951 9.31078 2.52952 10.7461 2.91384C12.1813 3.29816 13.4497 4.14532 14.3545 5.32394C15.2592 6.50257 15.7498 7.94677 15.7501 9.43262V10.0654C15.7501 10.457 15.5946 10.8326 15.3177 11.1095C15.0407 11.3864 14.6652 11.542 14.2736 11.542C13.882 11.542 13.5063 11.3864 13.2295 11.1095C12.9526 10.8326 12.797 10.457 12.797 10.0654V6.47949C12.797 6.25572 12.7081 6.0411 12.5499 5.88287C12.3917 5.72464 12.177 5.63574 11.9533 5.63574C11.7571 5.63138 11.5655 5.69555 11.4115 5.8172C11.2575 5.93887 11.1507 6.11041 11.1095 6.3023C10.4893 5.87332 9.75424 5.64105 9.00013 5.63574C8.36492 5.62815 7.73796 5.78005 7.17668 6.07753C6.61539 6.37501 6.1377 6.80857 5.78739 7.33849C5.43707 7.86841 5.22531 8.47776 5.1715 9.11072C5.11768 9.74369 5.22354 10.38 5.47939 10.9615C5.73522 11.5429 6.13287 12.0509 6.63588 12.4388C7.1389 12.8269 7.73122 13.0823 8.35859 13.1821C8.98596 13.2819 9.62833 13.2226 10.2269 13.0098C10.8254 12.7969 11.361 12.4373 11.7845 11.9639C12.1854 12.4831 12.7382 12.8644 13.3658 13.0549C13.9935 13.2454 14.665 13.2355 15.2868 13.0267C15.9085 12.8179 16.4499 12.4204 16.8353 11.8897C17.2209 11.359 17.4313 10.7213 17.4376 10.0654V9.43262C17.4376 8.32459 17.2194 7.22741 16.7954 6.20372C16.3714 5.18004 15.7498 4.2499 14.9664 3.4664C14.1828 2.68291 13.2528 2.0614 12.229 1.63738C11.2053 1.21336 10.1082 0.995117 9.00013 0.995117ZM9.00013 11.542C8.58294 11.542 8.1751 11.4183 7.82822 11.1865C7.48134 10.9547 7.21098 10.6253 7.05132 10.2398C6.89167 9.8544 6.8499 9.43028 6.93128 9.0211C7.01267 8.61192 7.21358 8.23607 7.50857 7.94106C7.80357 7.64606 8.17943 7.44516 8.58861 7.36378C8.99779 7.28238 9.42192 7.32415 9.80735 7.48381C10.1928 7.64346 10.5222 7.91382 10.754 8.26072C10.9858 8.6076 11.1095 9.01542 11.1095 9.43262C11.1095 9.99206 10.8873 10.5286 10.4917 10.9242C10.0961 11.3198 9.55957 11.542 9.00013 11.542Z" fill="white"/>
</g>
<defs>
<clipPath id="clip0_13_34">
<rect width="18" height="18" fill="white" transform="translate(0 0.432617)"/>
</clipPath>
</defs>
</svg>
