<svg width="18" height="19" viewBox="0 0 18 19" fill="none" xmlns="http://www.w3.org/2000/svg">
<g clip-path="url(#clip0_13_40)">
<path d="M14.9062 0.995117H3.09375C2.42242 0.995117 1.77859 1.2618 1.30389 1.7365C0.829185 2.21121 0.5625 2.85503 0.5625 3.52637V15.3389C0.5625 16.0102 0.829185 16.654 1.30389 17.1287C1.77859 17.6034 2.42242 17.8701 3.09375 17.8701H14.9062C15.0451 17.8682 15.1833 17.854 15.3197 17.8279L15.5728 17.7689H15.6319H15.6741L15.9862 17.6507L16.0959 17.5917C16.1803 17.5411 16.2731 17.4989 16.3575 17.4398C16.4701 17.3569 16.5773 17.2667 16.6781 17.1698L16.7372 17.0939C16.82 17.0099 16.8962 16.9196 16.965 16.8239L17.0409 16.7142C17.0999 16.6202 17.1506 16.5215 17.1928 16.4189C17.216 16.3784 17.2357 16.3361 17.2519 16.2923C17.2941 16.1911 17.3194 16.0814 17.3531 15.9717V15.8451C17.4009 15.6803 17.4293 15.5103 17.4375 15.3389V3.52637C17.4375 2.85503 17.1708 2.21121 16.6961 1.7365C16.2214 1.2618 15.5775 0.995117 14.9062 0.995117ZM3.09375 16.1826C2.86998 16.1826 2.65536 16.0937 2.49713 15.9355C2.3389 15.7773 2.25 15.5626 2.25 15.3389V11.7023L5.02594 8.91793C5.10437 8.83884 5.19769 8.77608 5.30052 8.73324C5.40333 8.6904 5.51361 8.66835 5.625 8.66835C5.73639 8.66835 5.84667 8.6904 5.94948 8.73324C6.05231 8.77608 6.14563 8.83884 6.22406 8.91793L13.4803 16.1826H3.09375ZM15.75 15.3389C15.7492 15.4429 15.7292 15.5459 15.6909 15.6426C15.6717 15.6838 15.6491 15.7233 15.6234 15.7607C15.6008 15.7964 15.5755 15.8303 15.5475 15.862L11.0334 11.3479L11.7759 10.6054C11.8544 10.5263 11.9477 10.4636 12.0506 10.4207C12.1534 10.3779 12.2636 10.3558 12.375 10.3558C12.4864 10.3558 12.5966 10.3779 12.6994 10.4207C12.8023 10.4636 12.8956 10.5263 12.9741 10.6054L15.75 13.3898V15.3389ZM15.75 11.002L14.1637 9.43262C13.6809 8.97445 13.0407 8.71904 12.375 8.71904C11.7093 8.71904 11.0691 8.97445 10.5863 9.43262L9.84375 10.1751L7.41375 7.74512C6.93089 7.28695 6.29063 7.03154 5.625 7.03154C4.95937 7.03154 4.31911 7.28695 3.83625 7.74512L2.25 9.31449V3.52637C2.25 3.30259 2.3389 3.08798 2.49713 2.92975C2.65536 2.77151 2.86998 2.68262 3.09375 2.68262H14.9062C15.13 2.68262 15.3447 2.77151 15.5028 2.92975C15.6611 3.08798 15.75 3.30259 15.75 3.52637V11.002Z" fill="white"/>
</g>
<defs>
<clipPath id="clip0_13_40">
<rect width="18" height="18" fill="white" transform="translate(0 0.432617)"/>
</clipPath>
</defs>
</svg>
