<svg width="14" height="14" viewBox="0 0 14 14" fill="none" xmlns="http://www.w3.org/2000/svg">
<g clip-path="url(#clip0_11_244)">
<path d="M7.112 14H2.8C1.2544 14 0 12.7456 0 11.2V6.888C0 5.3452 1.2544 4.088 2.8 4.088H4.116V2.8C4.116 1.2544 5.3704 0 6.916 0H11.2C12.7428 0 14 1.2544 14 2.8V7.084C14 8.6268 12.7456 9.884 11.2 9.884H5.0736C4.7124 9.884 4.3904 9.6684 4.2532 9.3352C4.116 9.002 4.1916 8.6212 4.4464 8.3664L7.0476 5.7652H2.8C2.184 5.7652 1.68 6.2664 1.68 6.8852V11.2C1.68 11.816 2.1812 12.32 2.8 12.32H7.112C7.728 12.32 8.232 11.8188 8.232 11.2V9.884H9.912V11.2C9.912 12.7456 8.6576 14 7.112 14ZM6.9832 8.204H11.2C11.816 8.204 12.32 7.7028 12.32 7.084V2.8C12.32 2.184 11.8188 1.68 11.2 1.68H6.916C6.3 1.68 5.796 2.1812 5.796 2.8V4.088H8.9544C9.3156 4.088 9.6376 4.3036 9.7748 4.6368C9.912 4.97 9.8364 5.3508 9.5816 5.6056L6.9832 8.204Z" fill="white"/>
</g>
<defs>
<clipPath id="clip0_11_244">
<rect width="14" height="14" fill="white"/>
</clipPath>
</defs>
</svg>
