<svg width="18" height="19" viewBox="0 0 18 19" fill="none" xmlns="http://www.w3.org/2000/svg">
<g clip-path="url(#clip0_12_18)">
<path d="M9.144 18.4326H3.6C1.6128 18.4326 0 16.8198 0 14.8326V9.28862C0 7.30502 1.6128 5.68862 3.6 5.68862H5.292V4.03262C5.292 2.04542 6.9048 0.432617 8.892 0.432617H14.4C16.3836 0.432617 18 2.04542 18 4.03262V9.54062C18 11.5242 16.3872 13.1406 14.4 13.1406H6.5232C6.0588 13.1406 5.6448 12.8634 5.4684 12.435C5.292 12.0066 5.3892 11.517 5.7168 11.1894L9.0612 7.84502H3.6C2.808 7.84502 2.16 8.48942 2.16 9.28502V14.8326C2.16 15.6246 2.8044 16.2726 3.6 16.2726H9.144C9.936 16.2726 10.584 15.6282 10.584 14.8326V13.1406H12.744V14.8326C12.744 16.8198 11.1312 18.4326 9.144 18.4326ZM8.9784 10.9806H14.4C15.192 10.9806 15.84 10.3362 15.84 9.54062V4.03262C15.84 3.24062 15.1956 2.59262 14.4 2.59262H8.892C8.1 2.59262 7.452 3.23702 7.452 4.03262V5.68862H11.5128C11.9772 5.68862 12.3912 5.96582 12.5676 6.39422C12.744 6.82262 12.6468 7.31222 12.3192 7.63982L8.9784 10.9806Z" fill="white"/>
</g>
<defs>
<clipPath id="clip0_12_18">
<rect width="18" height="18" fill="white" transform="translate(0 0.432617)"/>
</clipPath>
</defs>
</svg>
